<svg width="1708" height="512" viewBox="0 0 1708 512" fill="none" xmlns="http://www.w3.org/2000/svg">
<path d="M303.438 509.414C366.122 497.55 422.135 462.627 460.505 411.483C498.876 360.34 516.84 296.662 510.879 232.921C504.918 169.18 475.461 109.969 428.278 66.8851C366.715 10.6705 255.796 182.159 255.796 0C192.007 0.0509687 130.536 24.0016 83.4208 67.1607C36.3061 110.32 6.94314 169.578 1.08308 233.328C-4.77698 297.079 13.2881 360.728 51.74 411.81C90.1919 462.892 146.26 497.726 208.963 509.489L235.568 512V366.638C208.331 361.528 183.976 346.397 167.273 324.208C150.571 302.019 142.724 274.371 145.269 246.679C147.815 218.987 160.569 193.246 181.035 174.499C201.501 155.751 228.203 145.348 255.911 145.326C283.62 145.303 310.339 155.664 330.834 174.379C351.33 193.094 364.125 218.814 366.715 246.502C369.304 274.19 361.501 301.85 344.833 324.066C328.166 346.282 303.835 361.452 276.606 366.605V512L303.438 509.414Z" fill="url(#paint0_linear_142_3)"/>
<path d="M302.65 255.936C302.65 281.666 281.868 302.524 256.231 302.524C230.595 302.524 209.812 281.666 209.812 255.936C209.812 230.207 230.595 209.349 256.231 209.349C281.868 209.349 302.65 230.207 302.65 255.936Z" fill="url(#paint1_linear_142_3)"/>
<path d="M738.954 411.3C678.654 411.3 625.554 364.05 625.554 283.5C625.554 201.6 678.654 154.8 738.954 154.8C798.805 154.8 851.905 201.6 851.905 283.5C851.905 364.05 798.805 411.3 738.954 411.3ZM738.954 377.1C781.254 377.1 809.604 339.3 809.604 283.5C809.604 226.8 781.254 189 738.954 189C696.204 189 667.854 226.8 667.854 283.5C667.854 339.3 696.204 377.1 738.954 377.1ZM916.905 508.05V160.65H950.205L954.255 189H955.605C977.655 170.55 1004.65 154.8 1033 154.8C1096.45 154.8 1130.2 203.85 1130.2 279.45C1130.2 362.7 1080.25 411.3 1024 411.3C1001.95 411.3 979.005 400.95 956.955 382.95L957.855 425.7V508.05H916.905ZM1017.7 376.65C1057.75 376.65 1087.9 340.2 1087.9 279.9C1087.9 225.45 1069.45 189 1023.1 189C1002.4 189 981.705 200.7 957.855 222.75V351.45C979.905 369.9 1001.5 376.65 1017.7 376.65ZM1267.06 411.3C1215.76 411.3 1192.36 378 1192.36 315.45V160.65H1233.31V310.5C1233.31 355.95 1247.26 375.3 1279.66 375.3C1304.41 375.3 1322.41 363.15 1345.36 334.35V160.65H1386.31V405H1352.56L1348.96 366.75H1348.06C1325.11 393.3 1300.81 411.3 1267.06 411.3ZM1533.2 411.3C1498.55 411.3 1464.8 396.45 1441.85 377.55L1462.1 350.1C1483.25 367.2 1504.85 379.35 1534.1 379.35C1566.5 379.35 1582.7 362.25 1582.7 340.65C1582.7 315.9 1553.45 304.65 1526.45 294.75C1492.7 281.7 1455.35 265.5 1455.35 223.65C1455.35 184.95 1486.4 154.8 1539.5 154.8C1569.65 154.8 1596.65 166.95 1615.55 182.25L1595.75 208.35C1579.1 196.2 1561.55 186.75 1539.95 186.75C1508.9 186.75 1494.95 202.95 1494.95 221.85C1494.95 245.25 1519.7 254.25 1547.6 264.15C1583.15 277.65 1621.85 292.05 1621.85 338.4C1621.85 378.45 1590.8 411.3 1533.2 411.3Z" fill="black"/>
<defs>
<linearGradient id="paint0_linear_142_3" x1="256" y1="0" x2="256" y2="512" gradientUnits="userSpaceOnUse">
<stop stop-color="#F2709C"/>
<stop offset="1" stop-color="#FF9472"/>
</linearGradient>
<linearGradient id="paint1_linear_142_3" x1="256.231" y1="209.349" x2="256.231" y2="302.524" gradientUnits="userSpaceOnUse">
<stop stop-color="#F2709C"/>
<stop offset="1" stop-color="#FF9472"/>
</linearGradient>
</defs>
</svg>
