<svg width="512" height="512" viewBox="0 0 512 512" fill="none" xmlns="http://www.w3.org/2000/svg">
<path d="M303.438 509.414C366.122 497.55 422.135 462.627 460.505 411.483C498.876 360.34 516.84 296.662 510.879 232.921C504.918 169.18 475.461 109.969 428.278 66.8851C366.715 10.6705 255.796 182.159 255.796 0C192.007 0.0509687 130.536 24.0016 83.4208 67.1607C36.3061 110.32 6.94314 169.578 1.08308 233.328C-4.77698 297.079 13.2881 360.728 51.74 411.81C90.1919 462.892 146.26 497.726 208.963 509.489L235.568 512V366.638C208.331 361.528 183.976 346.397 167.273 324.208C150.571 302.019 142.724 274.371 145.269 246.679C147.815 218.987 160.569 193.246 181.035 174.499C201.501 155.751 228.203 145.348 255.911 145.326C283.62 145.303 310.339 155.664 330.834 174.379C351.33 193.094 364.125 218.814 366.715 246.502C369.304 274.19 361.501 301.85 344.833 324.066C328.166 346.282 303.835 361.452 276.606 366.605V512L303.438 509.414Z" fill="url(#paint0_linear_162_2)"/>
<path d="M302.65 255.936C302.65 281.666 281.868 302.524 256.231 302.524C230.595 302.524 209.812 281.666 209.812 255.936C209.812 230.207 230.595 209.349 256.231 209.349C281.868 209.349 302.65 230.207 302.65 255.936Z" fill="url(#paint1_linear_162_2)"/>
<defs>
<linearGradient id="paint0_linear_162_2" x1="256" y1="0" x2="256" y2="512" gradientUnits="userSpaceOnUse">
<stop stop-color="#F2709C"/>
<stop offset="1" stop-color="#FF9472"/>
</linearGradient>
<linearGradient id="paint1_linear_162_2" x1="256.231" y1="209.349" x2="256.231" y2="302.524" gradientUnits="userSpaceOnUse">
<stop stop-color="#F2709C"/>
<stop offset="1" stop-color="#FF9472"/>
</linearGradient>
</defs>
</svg>
