<svg width="327" height="39" viewBox="0 0 327 39" fill="none" xmlns="http://www.w3.org/2000/svg">
<path d="M0.522727 30V0.90909H10.3523C12.6345 0.90909 14.5 1.32102 15.9489 2.14489C17.4072 2.95928 18.4867 4.0625 19.1875 5.45455C19.8883 6.84659 20.2386 8.39962 20.2386 10.1136C20.2386 11.8277 19.8883 13.3854 19.1875 14.7869C18.4962 16.1884 17.4261 17.3059 15.9773 18.1392C14.5284 18.9631 12.6723 19.375 10.4091 19.375H3.36364V16.25H10.2955C11.858 16.25 13.1127 15.9801 14.0597 15.4403C15.0066 14.9006 15.6932 14.1714 16.1193 13.2528C16.5549 12.3248 16.7727 11.2784 16.7727 10.1136C16.7727 8.94886 16.5549 7.9072 16.1193 6.98864C15.6932 6.07008 15.0019 5.35038 14.0455 4.82955C13.089 4.29924 11.8201 4.03409 10.2386 4.03409H4.04545V30H0.522727ZM34.0881 30.4545C32.1184 30.4545 30.3902 29.9858 28.9034 29.0483C27.4261 28.1108 26.2708 26.7992 25.4375 25.1136C24.6136 23.428 24.2017 21.4583 24.2017 19.2045C24.2017 16.9318 24.6136 14.9479 25.4375 13.2528C26.2708 11.5578 27.4261 10.2415 28.9034 9.30398C30.3902 8.36648 32.1184 7.89773 34.0881 7.89773C36.0578 7.89773 37.7813 8.36648 39.2585 9.30398C40.7453 10.2415 41.9006 11.5578 42.7244 13.2528C43.5578 14.9479 43.9744 16.9318 43.9744 19.2045C43.9744 21.4583 43.5578 23.428 42.7244 25.1136C41.9006 26.7992 40.7453 28.1108 39.2585 29.0483C37.7813 29.9858 36.0578 30.4545 34.0881 30.4545ZM34.0881 27.4432C35.5843 27.4432 36.8153 27.0597 37.7812 26.2926C38.7472 25.5256 39.4621 24.517 39.9261 23.267C40.3902 22.017 40.6222 20.6629 40.6222 19.2045C40.6222 17.7462 40.3902 16.3873 39.9261 15.1278C39.4621 13.8684 38.7472 12.8504 37.7812 12.0739C36.8153 11.2973 35.5843 10.9091 34.0881 10.9091C32.5919 10.9091 31.3608 11.2973 30.3949 12.0739C29.429 12.8504 28.714 13.8684 28.25 15.1278C27.786 16.3873 27.554 17.7462 27.554 19.2045C27.554 20.6629 27.786 22.017 28.25 23.267C28.714 24.517 29.429 25.5256 30.3949 26.2926C31.3608 27.0597 32.5919 27.4432 34.0881 27.4432ZM53.2926 30L46.6449 8.18182H50.1676L54.8835 24.8864H55.1108L59.7699 8.18182H63.3494L67.9517 24.8295H68.179L72.8949 8.18182H76.4176L69.7699 30H66.4744L61.7017 13.2386H61.3608L56.5881 30H53.2926ZM89.255 30.4545C87.1527 30.4545 85.3393 29.9905 83.8146 29.0625C82.2995 28.125 81.13 26.8182 80.3061 25.142C79.4917 23.4564 79.0845 21.4962 79.0845 19.2614C79.0845 17.0265 79.4917 15.0568 80.3061 13.3523C81.13 11.6383 82.2758 10.303 83.7436 9.34659C85.2209 8.38068 86.9444 7.89773 88.9141 7.89773C90.0504 7.89773 91.1726 8.08712 92.2805 8.46591C93.3885 8.8447 94.397 9.46023 95.3061 10.3125C96.2152 11.1553 96.9396 12.2727 97.4794 13.6648C98.0192 15.0568 98.2891 16.7708 98.2891 18.8068V20.2273H81.4709V17.3295H94.88C94.88 16.0985 94.6338 15 94.1413 14.0341C93.6584 13.0682 92.9671 12.3059 92.0675 11.7472C91.1773 11.1884 90.1262 10.9091 88.9141 10.9091C87.5788 10.9091 86.4235 11.2405 85.4482 11.9034C84.4822 12.5568 83.7389 13.4091 83.218 14.4602C82.6972 15.5114 82.4368 16.6383 82.4368 17.8409V19.7727C82.4368 21.4205 82.7209 22.8172 83.2891 23.9631C83.8667 25.0994 84.6669 25.9659 85.6896 26.5625C86.7124 27.1496 87.9008 27.4432 89.255 27.4432C90.1357 27.4432 90.9311 27.3201 91.6413 27.0739C92.361 26.8182 92.9813 26.4394 93.5021 25.9375C94.023 25.4261 94.4254 24.7917 94.7095 24.0341L97.9482 24.9432C97.6072 26.0417 97.0343 27.0076 96.2294 27.8409C95.4245 28.6648 94.4302 29.3087 93.2464 29.7727C92.0627 30.2273 90.7322 30.4545 89.255 30.4545ZM103.388 30V8.18182H106.627V11.4773H106.854C107.252 10.3977 107.972 9.52178 109.013 8.84943C110.055 8.17708 111.229 7.84091 112.536 7.84091C112.782 7.84091 113.09 7.84564 113.46 7.85511C113.829 7.86458 114.108 7.87879 114.298 7.89773V11.3068C114.184 11.2784 113.924 11.2358 113.516 11.179C113.119 11.1127 112.697 11.0795 112.252 11.0795C111.192 11.0795 110.245 11.3021 109.411 11.7472C108.587 12.1828 107.934 12.7888 107.451 13.5653C106.978 14.3324 106.741 15.2083 106.741 16.1932V30H103.388ZM126.755 30.4545C124.653 30.4545 122.839 29.9905 121.315 29.0625C119.799 28.125 118.63 26.8182 117.806 25.142C116.992 23.4564 116.585 21.4962 116.585 19.2614C116.585 17.0265 116.992 15.0568 117.806 13.3523C118.63 11.6383 119.776 10.303 121.244 9.34659C122.721 8.38068 124.444 7.89773 126.414 7.89773C127.55 7.89773 128.673 8.08712 129.781 8.46591C130.888 8.8447 131.897 9.46023 132.806 10.3125C133.715 11.1553 134.44 12.2727 134.979 13.6648C135.519 15.0568 135.789 16.7708 135.789 18.8068V20.2273H118.971V17.3295H132.38C132.38 16.0985 132.134 15 131.641 14.0341C131.158 13.0682 130.467 12.3059 129.567 11.7472C128.677 11.1884 127.626 10.9091 126.414 10.9091C125.079 10.9091 123.924 11.2405 122.948 11.9034C121.982 12.5568 121.239 13.4091 120.718 14.4602C120.197 15.5114 119.937 16.6383 119.937 17.8409V19.7727C119.937 21.4205 120.221 22.8172 120.789 23.9631C121.367 25.0994 122.167 25.9659 123.19 26.5625C124.212 27.1496 125.401 27.4432 126.755 27.4432C127.636 27.4432 128.431 27.3201 129.141 27.0739C129.861 26.8182 130.481 26.4394 131.002 25.9375C131.523 25.4261 131.925 24.7917 132.21 24.0341L135.448 24.9432C135.107 26.0417 134.534 27.0076 133.729 27.8409C132.924 28.6648 131.93 29.3087 130.746 29.7727C129.563 30.2273 128.232 30.4545 126.755 30.4545ZM149.127 30.4545C147.309 30.4545 145.704 29.9953 144.312 29.0767C142.92 28.1487 141.831 26.8419 141.045 25.1562C140.259 23.4612 139.866 21.4583 139.866 19.1477C139.866 16.8561 140.259 14.8674 141.045 13.1818C141.831 11.4962 142.924 10.1941 144.326 9.27557C145.728 8.35701 147.347 7.89773 149.184 7.89773C150.604 7.89773 151.727 8.13447 152.55 8.60795C153.384 9.07197 154.018 9.60227 154.454 10.1989C154.899 10.786 155.245 11.2689 155.491 11.6477H155.775V0.90909H159.127V30H155.888V26.6477H155.491C155.245 27.0455 154.894 27.5473 154.44 28.1534C153.985 28.75 153.336 29.285 152.494 29.7585C151.651 30.2225 150.529 30.4545 149.127 30.4545ZM149.582 27.4432C150.926 27.4432 152.063 27.0928 152.991 26.392C153.919 25.6818 154.624 24.7017 155.107 23.4517C155.59 22.1922 155.832 20.7386 155.832 19.0909C155.832 17.4621 155.595 16.0369 155.121 14.8153C154.648 13.5843 153.947 12.6278 153.019 11.946C152.091 11.2547 150.945 10.9091 149.582 10.9091C148.161 10.9091 146.978 11.2737 146.031 12.0028C145.093 12.7225 144.388 13.7027 143.914 14.9432C143.45 16.1742 143.218 17.5568 143.218 19.0909C143.218 20.6439 143.455 22.0549 143.928 23.3239C144.411 24.5833 145.121 25.5871 146.059 26.3352C147.006 27.0739 148.18 27.4432 149.582 27.4432ZM177.437 30V0.90909H180.789V11.6477H181.073C181.319 11.2689 181.66 10.786 182.096 10.1989C182.541 9.60227 183.175 9.07197 183.999 8.60795C184.833 8.13447 185.96 7.89773 187.38 7.89773C189.217 7.89773 190.836 8.35701 192.238 9.27557C193.639 10.1941 194.733 11.4962 195.519 13.1818C196.305 14.8674 196.698 16.8561 196.698 19.1477C196.698 21.4583 196.305 23.4612 195.519 25.1562C194.733 26.8419 193.644 28.1487 192.252 29.0767C190.86 29.9953 189.255 30.4545 187.437 30.4545C186.035 30.4545 184.913 30.2225 184.07 29.7585C183.228 29.285 182.579 28.75 182.124 28.1534C181.67 27.5473 181.319 27.0455 181.073 26.6477H180.675V30H177.437ZM180.732 19.0909C180.732 20.7386 180.974 22.1922 181.457 23.4517C181.94 24.7017 182.645 25.6818 183.573 26.392C184.501 27.0928 185.638 27.4432 186.982 27.4432C188.384 27.4432 189.553 27.0739 190.491 26.3352C191.438 25.5871 192.148 24.5833 192.621 23.3239C193.104 22.0549 193.346 20.6439 193.346 19.0909C193.346 17.5568 193.109 16.1742 192.636 14.9432C192.172 13.7027 191.466 12.7225 190.519 12.0028C189.582 11.2737 188.403 10.9091 186.982 10.9091C185.619 10.9091 184.473 11.2547 183.545 11.946C182.617 12.6278 181.916 13.5843 181.442 14.8153C180.969 16.0369 180.732 17.4621 180.732 19.0909ZM203.204 38.1818C202.636 38.1818 202.129 38.1345 201.684 38.0398C201.239 37.9545 200.931 37.8693 200.761 37.7841L201.613 34.8295C202.427 35.0379 203.147 35.1136 203.772 35.0568C204.397 35 204.951 34.7206 205.434 34.2188C205.926 33.7263 206.376 32.9261 206.783 31.8182L207.408 30.1136L199.34 8.18182H202.977L208.999 25.5682H209.227L215.249 8.18182H218.886L209.624 33.1818C209.208 34.3087 208.692 35.2415 208.076 35.9801C207.46 36.7282 206.746 37.2822 205.931 37.642C205.126 38.0019 204.217 38.1818 203.204 38.1818ZM235.015 30V0.90909H238.538V15.3409H238.879L251.947 0.90909H256.549L244.333 14.0341L256.549 30H252.288L242.174 16.4773L238.538 20.5682V30H235.015ZM267.075 30.5114C265.692 30.5114 264.437 30.2509 263.31 29.7301C262.183 29.1998 261.289 28.4375 260.626 27.4432C259.963 26.4394 259.631 25.2273 259.631 23.8068C259.631 22.5568 259.878 21.5436 260.37 20.767C260.862 19.9811 261.521 19.3655 262.344 18.9205C263.168 18.4754 264.077 18.1439 265.072 17.9261C266.076 17.6989 267.084 17.5189 268.097 17.3864C269.423 17.2159 270.498 17.0881 271.322 17.0028C272.155 16.9081 272.761 16.7519 273.14 16.5341C273.528 16.3163 273.722 15.9375 273.722 15.3977V15.2841C273.722 13.8826 273.339 12.7936 272.572 12.017C271.814 11.2405 270.664 10.8523 269.12 10.8523C267.52 10.8523 266.265 11.2027 265.356 11.9034C264.447 12.6042 263.808 13.3523 263.438 14.1477L260.256 13.0114C260.825 11.6856 261.582 10.6534 262.529 9.91477C263.486 9.16667 264.527 8.64583 265.654 8.35227C266.79 8.04924 267.908 7.89773 269.006 7.89773C269.707 7.89773 270.512 7.98295 271.421 8.15341C272.34 8.31439 273.225 8.65057 274.077 9.16193C274.939 9.6733 275.654 10.4451 276.222 11.4773C276.79 12.5095 277.075 13.892 277.075 15.625V30H273.722V27.0455H273.552C273.325 27.5189 272.946 28.0256 272.415 28.5653C271.885 29.1051 271.18 29.5644 270.299 29.9432C269.418 30.322 268.344 30.5114 267.075 30.5114ZM267.586 27.5C268.912 27.5 270.029 27.2396 270.938 26.7188C271.857 26.1979 272.548 25.5256 273.012 24.7017C273.486 23.8778 273.722 23.0114 273.722 22.1023V19.0341C273.58 19.2045 273.268 19.3608 272.785 19.5028C272.311 19.6354 271.762 19.7538 271.137 19.858C270.522 19.9527 269.92 20.0379 269.333 20.1136C268.755 20.1799 268.287 20.2367 267.927 20.2841C267.056 20.3977 266.241 20.5824 265.484 20.8381C264.736 21.0843 264.129 21.4583 263.665 21.9602C263.211 22.4527 262.984 23.125 262.984 23.9773C262.984 25.142 263.415 26.0227 264.276 26.6193C265.147 27.2064 266.251 27.5 267.586 27.5ZM283.193 30V8.18182H286.432V11.4773H286.659C287.057 10.3977 287.777 9.52178 288.818 8.84943C289.86 8.17708 291.034 7.84091 292.341 7.84091C292.587 7.84091 292.895 7.84564 293.264 7.85511C293.634 7.86458 293.913 7.87879 294.102 7.89773V11.3068C293.989 11.2784 293.728 11.2358 293.321 11.179C292.923 11.1127 292.502 11.0795 292.057 11.0795C290.996 11.0795 290.049 11.3021 289.216 11.7472C288.392 12.1828 287.739 12.7888 287.256 13.5653C286.782 14.3324 286.545 15.2083 286.545 16.1932V30H283.193ZM301.428 0.90909V30H298.076V0.90909H301.428ZM316.432 30.4545C314.462 30.4545 312.734 29.9858 311.247 29.0483C309.77 28.1108 308.615 26.7992 307.781 25.1136C306.957 23.428 306.545 21.4583 306.545 19.2045C306.545 16.9318 306.957 14.9479 307.781 13.2528C308.615 11.5578 309.77 10.2415 311.247 9.30398C312.734 8.36648 314.462 7.89773 316.432 7.89773C318.402 7.89773 320.125 8.36648 321.602 9.30398C323.089 10.2415 324.244 11.5578 325.068 13.2528C325.902 14.9479 326.318 16.9318 326.318 19.2045C326.318 21.4583 325.902 23.428 325.068 25.1136C324.244 26.7992 323.089 28.1108 321.602 29.0483C320.125 29.9858 318.402 30.4545 316.432 30.4545ZM316.432 27.4432C317.928 27.4432 319.159 27.0597 320.125 26.2926C321.091 25.5256 321.806 24.517 322.27 23.267C322.734 22.017 322.966 20.6629 322.966 19.2045C322.966 17.7462 322.734 16.3873 322.27 15.1278C321.806 13.8684 321.091 12.8504 320.125 12.0739C319.159 11.2973 317.928 10.9091 316.432 10.9091C314.936 10.9091 313.705 11.2973 312.739 12.0739C311.773 12.8504 311.058 13.8684 310.594 15.1278C310.13 16.3873 309.898 17.7462 309.898 19.2045C309.898 20.6629 310.13 22.017 310.594 23.267C311.058 24.517 311.773 25.5256 312.739 26.2926C313.705 27.0597 314.936 27.4432 316.432 27.4432Z" fill="white"/>
</svg>
