<svg width="997" height="355" viewBox="0 0 997 355" fill="none" xmlns="http://www.w3.org/2000/svg">
<path d="M113.954 257.3C53.6545 257.3 0.554493 210.05 0.554493 129.5C0.554493 47.6 53.6545 0.799976 113.954 0.799976C173.805 0.799976 226.905 47.6 226.905 129.5C226.905 210.05 173.805 257.3 113.954 257.3ZM113.954 223.1C156.254 223.1 184.604 185.3 184.604 129.5C184.604 72.8 156.254 35 113.954 35C71.2045 35 42.8545 72.8 42.8545 129.5C42.8545 185.3 71.2045 223.1 113.954 223.1ZM291.905 354.05V6.64998H325.205L329.255 35H330.605C352.655 16.55 379.655 0.799976 408.005 0.799976C471.455 0.799976 505.205 49.85 505.205 125.45C505.205 208.7 455.255 257.3 399.005 257.3C376.955 257.3 354.005 246.95 331.955 228.95L332.855 271.7V354.05H291.905ZM392.705 222.65C432.755 222.65 462.905 186.2 462.905 125.9C462.905 71.45 444.455 35 398.105 35C377.405 35 356.705 46.7 332.855 68.75V197.45C354.905 215.9 376.505 222.65 392.705 222.65ZM642.058 257.3C590.758 257.3 567.358 224 567.358 161.45V6.64998H608.308V156.5C608.308 201.95 622.258 221.3 654.658 221.3C679.408 221.3 697.408 209.15 720.358 180.35V6.64998H761.308V251H727.558L723.958 212.75H723.058C700.108 239.3 675.808 257.3 642.058 257.3ZM908.197 257.3C873.547 257.3 839.797 242.45 816.847 223.55L837.097 196.1C858.247 213.2 879.847 225.35 909.097 225.35C941.497 225.35 957.697 208.25 957.697 186.65C957.697 161.9 928.447 150.65 901.447 140.75C867.697 127.7 830.347 111.5 830.347 69.65C830.347 30.95 861.397 0.799976 914.497 0.799976C944.647 0.799976 971.647 12.95 990.547 28.25L970.747 54.35C954.097 42.2 936.547 32.75 914.947 32.75C883.897 32.75 869.947 48.95 869.947 67.85C869.947 91.25 894.697 100.25 922.597 110.15C958.147 123.65 996.847 138.05 996.847 184.4C996.847 224.45 965.797 257.3 908.197 257.3Z" fill="black"/>
</svg>
